<svg width="200" height="28" viewBox="0 0 200 28" fill="none" xmlns="http://www.w3.org/2000/svg">
<path d="M9.268 1.872C11.908 1.872 14.224 2.388 16.216 3.42C18.232 4.452 19.78 5.928 20.86 7.848C21.964 9.744 22.516 11.952 22.516 14.472C22.516 16.992 21.964 19.2 20.86 21.096C19.78 22.968 18.232 24.42 16.216 25.452C14.224 26.484 11.908 27 9.268 27H0.484V1.872H9.268ZM9.088 22.716C11.728 22.716 13.768 21.996 15.208 20.556C16.648 19.116 17.368 17.088 17.368 14.472C17.368 11.856 16.648 9.816 15.208 8.352C13.768 6.864 11.728 6.12 9.088 6.12H5.524V22.716H9.088ZM24.9927 16.956C24.9927 14.94 25.3887 13.152 26.1807 11.592C26.9967 10.032 28.0887 8.832 29.4567 7.992C30.8487 7.152 32.3967 6.732 34.1007 6.732C35.5887 6.732 36.8847 7.032 37.9887 7.632C39.1167 8.232 40.0167 8.988 40.6887 9.9V7.056H45.7647V27H40.6887V24.084C40.0407 25.02 39.1407 25.8 37.9887 26.424C36.8607 27.024 35.5527 27.324 34.0647 27.324C32.3847 27.324 30.8487 26.892 29.4567 26.028C28.0887 25.164 26.9967 23.952 26.1807 22.392C25.3887 20.808 24.9927 18.996 24.9927 16.956ZM40.6887 17.028C40.6887 15.804 40.4487 14.76 39.9687 13.896C39.4887 13.008 38.8407 12.336 38.0247 11.88C37.2087 11.4 36.3327 11.16 35.3967 11.16C34.4607 11.16 33.5967 11.388 32.8047 11.844C32.0127 12.3 31.3647 12.972 30.8607 13.86C30.3807 14.724 30.1407 15.756 30.1407 16.956C30.1407 18.156 30.3807 19.212 30.8607 20.124C31.3647 21.012 32.0127 21.696 32.8047 22.176C33.6207 22.656 34.4847 22.896 35.3967 22.896C36.3327 22.896 37.2087 22.668 38.0247 22.212C38.8407 21.732 39.4887 21.06 39.9687 20.196C40.4487 19.308 40.6887 18.252 40.6887 17.028ZM58.3191 27.324C56.6871 27.324 55.2231 27.036 53.9271 26.46C52.6311 25.86 51.5991 25.056 50.8311 24.048C50.0871 23.04 49.6791 21.924 49.6071 20.7H54.6831C54.7791 21.468 55.1511 22.104 55.7991 22.608C56.4711 23.112 57.2991 23.364 58.2831 23.364C59.2431 23.364 59.9871 23.172 60.5151 22.788C61.0671 22.404 61.3431 21.912 61.3431 21.312C61.3431 20.664 61.0071 20.184 60.3351 19.872C59.6871 19.536 58.6431 19.176 57.2031 18.792C55.7151 18.432 54.4911 18.06 53.5311 17.676C52.5951 17.292 51.7791 16.704 51.0831 15.912C50.4111 15.12 50.0751 14.052 50.0751 12.708C50.0751 11.604 50.3871 10.596 51.0111 9.684C51.6591 8.772 52.5711 8.052 53.7471 7.524C54.9471 6.996 56.3511 6.732 57.9591 6.732C60.3351 6.732 62.2311 7.332 63.6471 8.532C65.0631 9.708 65.8431 11.304 65.9871 13.32H61.1631C61.0911 12.528 60.7551 11.904 60.1551 11.448C59.5791 10.968 58.7991 10.728 57.8151 10.728C56.9031 10.728 56.1951 10.896 55.6911 11.232C55.2111 11.568 54.9711 12.036 54.9711 12.636C54.9711 13.308 55.3071 13.824 55.9791 14.184C56.6511 14.52 57.6951 14.868 59.1111 15.228C60.5511 15.588 61.7391 15.96 62.6751 16.344C63.6111 16.728 64.4151 17.328 65.0871 18.144C65.7831 18.936 66.1431 19.992 66.1671 21.312C66.1671 22.464 65.8431 23.496 65.1951 24.408C64.5711 25.32 63.6591 26.04 62.4591 26.568C61.2831 27.072 59.9031 27.324 58.3191 27.324ZM81.5363 6.768C83.0483 6.768 84.3923 7.104 85.5683 7.776C86.7443 8.424 87.6563 9.396 88.3043 10.692C88.9763 11.964 89.3123 13.5 89.3123 15.3V27H84.2723V15.984C84.2723 14.4 83.8763 13.188 83.0843 12.348C82.2923 11.484 81.2123 11.052 79.8443 11.052C78.4523 11.052 77.3483 11.484 76.5323 12.348C75.7403 13.188 75.3443 14.4 75.3443 15.984V27H70.3043V0.36H75.3443V9.54C75.9923 8.676 76.8563 8.004 77.9363 7.524C79.0163 7.02 80.2163 6.768 81.5363 6.768ZM99.1451 9.972C99.7931 9.012 100.681 8.232 101.809 7.632C102.961 7.032 104.269 6.732 105.733 6.732C107.437 6.732 108.973 7.152 110.341 7.992C111.733 8.832 112.825 10.032 113.617 11.592C114.433 13.128 114.841 14.916 114.841 16.956C114.841 18.996 114.433 20.808 113.617 22.392C112.825 23.952 111.733 25.164 110.341 26.028C108.973 26.892 107.437 27.324 105.733 27.324C104.245 27.324 102.937 27.036 101.809 26.46C100.705 25.86 99.8171 25.092 99.1451 24.156V27H94.1051V0.36H99.1451V9.972ZM109.693 16.956C109.693 15.756 109.441 14.724 108.937 13.86C108.457 12.972 107.809 12.3 106.993 11.844C106.201 11.388 105.337 11.16 104.401 11.16C103.489 11.16 102.625 11.4 101.809 11.88C101.017 12.336 100.369 13.008 99.8651 13.896C99.3851 14.784 99.1451 15.828 99.1451 17.028C99.1451 18.228 99.3851 19.272 99.8651 20.16C100.369 21.048 101.017 21.732 101.809 22.212C102.625 22.668 103.489 22.896 104.401 22.896C105.337 22.896 106.201 22.656 106.993 22.176C107.809 21.696 108.457 21.012 108.937 20.124C109.441 19.236 109.693 18.18 109.693 16.956ZM127.36 27.324C125.44 27.324 123.712 26.904 122.176 26.064C120.64 25.2 119.428 23.988 118.54 22.428C117.676 20.868 117.244 19.068 117.244 17.028C117.244 14.988 117.688 13.188 118.576 11.628C119.488 10.068 120.724 8.868 122.284 8.028C123.844 7.164 125.584 6.732 127.504 6.732C129.424 6.732 131.164 7.164 132.724 8.028C134.284 8.868 135.508 10.068 136.396 11.628C137.308 13.188 137.764 14.988 137.764 17.028C137.764 19.068 137.296 20.868 136.36 22.428C135.448 23.988 134.2 25.2 132.616 26.064C131.056 26.904 129.304 27.324 127.36 27.324ZM127.36 22.932C128.272 22.932 129.124 22.716 129.916 22.284C130.732 21.828 131.38 21.156 131.86 20.268C132.34 19.38 132.58 18.3 132.58 17.028C132.58 15.132 132.076 13.68 131.068 12.672C130.084 11.64 128.872 11.124 127.432 11.124C125.992 11.124 124.78 11.64 123.796 12.672C122.836 13.68 122.356 15.132 122.356 17.028C122.356 18.924 122.824 20.388 123.76 21.42C124.72 22.428 125.92 22.932 127.36 22.932ZM140.165 16.956C140.165 14.94 140.561 13.152 141.353 11.592C142.169 10.032 143.261 8.832 144.629 7.992C146.021 7.152 147.569 6.732 149.273 6.732C150.761 6.732 152.057 7.032 153.161 7.632C154.289 8.232 155.189 8.988 155.861 9.9V7.056H160.937V27H155.861V24.084C155.213 25.02 154.313 25.8 153.161 26.424C152.033 27.024 150.725 27.324 149.237 27.324C147.557 27.324 146.021 26.892 144.629 26.028C143.261 25.164 142.169 23.952 141.353 22.392C140.561 20.808 140.165 18.996 140.165 16.956ZM155.861 17.028C155.861 15.804 155.621 14.76 155.141 13.896C154.661 13.008 154.013 12.336 153.197 11.88C152.381 11.4 151.505 11.16 150.569 11.16C149.633 11.16 148.769 11.388 147.977 11.844C147.185 12.3 146.537 12.972 146.033 13.86C145.553 14.724 145.313 15.756 145.313 16.956C145.313 18.156 145.553 19.212 146.033 20.124C146.537 21.012 147.185 21.696 147.977 22.176C148.793 22.656 149.657 22.896 150.569 22.896C151.505 22.896 152.381 22.668 153.197 22.212C154.013 21.732 154.661 21.06 155.141 20.196C155.621 19.308 155.861 18.252 155.861 17.028ZM170.899 10.152C171.547 9.096 172.387 8.268 173.419 7.668C174.475 7.068 175.675 6.768 177.019 6.768V12.06H175.687C174.103 12.06 172.903 12.432 172.087 13.176C171.295 13.92 170.899 15.216 170.899 17.064V27H165.859V7.056H170.899V10.152ZM179.118 16.956C179.118 14.94 179.514 13.152 180.306 11.592C181.122 10.032 182.226 8.832 183.618 7.992C185.01 7.152 186.558 6.732 188.262 6.732C189.558 6.732 190.794 7.02 191.97 7.596C193.146 8.148 194.082 8.892 194.778 9.828V0.36H199.89V27H194.778V24.048C194.154 25.032 193.278 25.824 192.15 26.424C191.022 27.024 189.714 27.324 188.226 27.324C186.546 27.324 185.01 26.892 183.618 26.028C182.226 25.164 181.122 23.952 180.306 22.392C179.514 20.808 179.118 18.996 179.118 16.956ZM194.814 17.028C194.814 15.804 194.574 14.76 194.094 13.896C193.614 13.008 192.966 12.336 192.15 11.88C191.334 11.4 190.458 11.16 189.522 11.16C188.586 11.16 187.722 11.388 186.93 11.844C186.138 12.3 185.49 12.972 184.986 13.86C184.506 14.724 184.266 15.756 184.266 16.956C184.266 18.156 184.506 19.212 184.986 20.124C185.49 21.012 186.138 21.696 186.93 22.176C187.746 22.656 188.61 22.896 189.522 22.896C190.458 22.896 191.334 22.668 192.15 22.212C192.966 21.732 193.614 21.06 194.094 20.196C194.574 19.308 194.814 18.252 194.814 17.028Z" fill="#151D48"/>
</svg>
