<svg width="119" height="32" viewBox="0 0 119 32" fill="none" xmlns="http://www.w3.org/2000/svg">
<path d="M7.39 2.06H0.0700002V23H7.39C14.08 23 18.43 18.89 18.43 12.56C18.43 6.2 14.08 2.06 7.39 2.06ZM4.27 19.43V5.6H7.24C11.65 5.6 14.14 8.21 14.14 12.56C14.14 16.91 11.65 19.43 7.24 19.43H4.27ZM20.4939 14.63C20.4939 19.82 23.8539 23.27 28.0539 23.27C30.6939 23.27 32.5839 22.01 33.5739 20.57V23H37.8039V6.38H33.5739V8.75C32.5839 7.37 30.7539 6.11 28.0839 6.11C23.8539 6.11 20.4939 9.44 20.4939 14.63ZM33.5739 14.69C33.5739 17.84 31.4739 19.58 29.1639 19.58C26.9139 19.58 24.7839 17.78 24.7839 14.63C24.7839 11.48 26.9139 9.8 29.1639 9.8C31.4739 9.8 33.5739 11.54 33.5739 14.69ZM46.1059 8.81V0.8H41.9059V23H46.1059V20.63C47.1259 22.07 48.9859 23.27 51.5959 23.27C55.8559 23.27 59.1859 19.82 59.1859 14.63C59.1859 9.44 55.8559 6.11 51.5959 6.11C49.0759 6.11 47.1259 7.28 46.1059 8.81ZM54.8959 14.63C54.8959 17.78 52.7659 19.58 50.4859 19.58C48.2359 19.58 46.1059 17.84 46.1059 14.69C46.1059 11.54 48.2359 9.8 50.4859 9.8C52.7659 9.8 54.8959 11.48 54.8959 14.63ZM61.158 14.63C61.158 19.82 64.518 23.27 68.718 23.27C71.358 23.27 73.248 22.01 74.238 20.57V23H78.468V6.38H74.238V8.75C73.248 7.37 71.418 6.11 68.748 6.11C64.518 6.11 61.158 9.44 61.158 14.63ZM74.238 14.69C74.238 17.84 72.138 19.58 69.828 19.58C67.578 19.58 65.448 17.78 65.448 14.63C65.448 11.48 67.578 9.8 69.828 9.8C72.138 9.8 74.238 11.54 74.238 14.69ZM94.21 23H98.41V13.25C98.41 8.66 95.65 6.14 91.78 6.14C89.65 6.14 87.85 7.04 86.77 8.45V6.38H82.57V23H86.77V13.82C86.77 11.15 88.24 9.71 90.52 9.71C92.74 9.71 94.21 11.15 94.21 13.82V23ZM101.324 14.63C101.324 19.82 104.684 23.27 108.914 23.27C111.524 23.27 113.414 21.98 114.404 20.54V23.12C114.404 26.21 112.604 27.53 110.294 27.53C108.194 27.53 106.634 26.54 106.214 25.04H102.044C102.464 28.85 105.734 31.19 110.414 31.19C115.874 31.19 118.634 27.62 118.634 23.12V6.38H114.404V8.75C113.414 7.31 111.524 6.11 108.914 6.11C104.684 6.11 101.324 9.44 101.324 14.63ZM114.404 14.69C114.404 17.84 112.304 19.58 109.994 19.58C107.744 19.58 105.614 17.78 105.614 14.63C105.614 11.48 107.744 9.8 109.994 9.8C112.304 9.8 114.404 11.54 114.404 14.69Z" fill="#151D48"/>
</svg>
